<?xml version="1.0" encoding="iso-8859-1"?>
<!-- Generator: Adobe Illustrator 19.0.0, SVG Export Plug-In . SVG Version: 6.00 Build 0)  -->
<svg version="1.1" id="Capa_1" xmlns="http://www.w3.org/2000/svg" xmlns:xlink="http://www.w3.org/1999/xlink" x="0px" y="0px"
	 viewBox="0 0 512 512" style="enable-background:new 0 0 512 512;" xml:space="preserve">
<path style="fill:#32D736;" d="M481.8,248.299C459.901,196.7,416.4,163.4,358.2,153.8c-9.6-58.2-42.9-101.7-94.501-123.6
	c-60.599-25.801-136.8-15.601-189.6,25.199c-4.499,3.6-6.599,9-5.698,14.7c1.199,5.401,5.099,9.9,10.199,11.7
	c28.5,9,55.499,21.301,80.4,36c6.901,4.2,9.3,13.5,5.099,20.4c-4.199,6.899-13.499,9.3-20.698,5.4
	C113.699,125.6,80.1,112.099,44.099,103.4c-6.599-1.8-13.499,1.199-16.8,7.2C17.1,128.899,9.901,149.299,5.4,171.499
	C3.9,179.599,9,187.4,16.8,189.2c23.699,5.099,45.601,13.2,65.7,23.399c7.2,3.602,10.201,12.902,6.301,20.101
	c-3.6,7.2-12.301,10.499-20.4,6.299c-14.702-7.5-31.201-13.499-48.9-18.3c-4.501-1.199-9.3-0.3-13.2,2.701
	C2.701,226.099,0,230.6,0,235.099V298.1c0,6.299,4.501,11.999,10.499,14.099C27,318.199,42,326.6,54.9,337.1
	c6.599,5.099,7.5,14.7,2.399,21c-4.499,5.4-11.1,10.199-21.299,2.4c-3.6-3.001-7.5-5.402-12.599-8.701
	c-4.801-2.699-10.501-2.999-15.3-0.3c-4.801,2.701-7.5,7.5-7.8,13.2L0,497c0,3.9,1.5,7.8,4.501,10.499C7.2,510.5,11.1,512,15,512
	l132.299-0.3c5.7-0.3,10.201-3.6,12.902-8.401c2.699-4.799,2.098-11.1-0.601-15.599c-2.701-4.2-5.099-8.101-8.101-11.7
	c-5.099-6.301-4.2-15.901,2.401-21.301c6.301-5.099,15.899-3.9,21,2.401c10.499,12.9,18.9,27.9,24.899,44.399
	c2.1,6,7.8,10.501,14.101,10.501h62.999c4.501,0,9.001-2.701,11.7-6.301c2.999-3.9,3.9-8.699,2.701-13.2
	c-4.801-17.699-11.1-34.499-18.6-49.2c-3.9-7.5-0.901-16.5,6.599-20.099c7.2-3.9,16.199-0.899,20.099,6.301
	c10.201,20.099,18.301,42.299,23.401,65.7c1.8,7.8,9.6,12.9,17.699,11.4c22.202-4.501,42.601-11.7,60.901-21.901
	c6-3.3,9-10.199,7.2-16.8c-8.699-36-22.5-69.3-40.199-99.3c-4.2-7.2-1.802-16.5,5.4-20.7c7.2-4.199,16.5-1.5,20.4,5.4
	c14.7,24.6,26.7,51.601,36,80.101c1.8,5.4,6.299,9.3,11.699,10.199c5.4,0.901,11.1-1.199,14.401-5.7
	C497.401,385.099,507.6,308.899,481.8,248.299z"/>
<g>
	<path style="fill:#10BB67;" d="M456.301,437.899c-3.301,4.501-9.001,6.601-14.401,5.7c-5.4-0.899-9.899-4.799-11.699-10.199
		c-9.3-28.5-21.301-55.501-36-80.101c-3.9-6.899-13.2-9.598-20.4-5.4c-7.202,4.2-9.6,13.5-5.4,20.7c17.699,30,31.5,63.3,40.199,99.3
		c1.8,6.601-1.199,13.5-7.2,16.8C383.1,494.9,362.701,502.1,340.499,506.6c-8.099,1.5-15.899-3.6-17.699-11.4
		c-5.099-23.401-13.2-45.601-23.401-65.7c-3.9-7.2-12.9-10.201-20.099-6.301c-7.5,3.6-10.499,12.599-6.599,20.099
		c7.5,14.702,13.799,31.501,18.6,49.2c1.199,4.501,0.298,9.3-2.701,13.2c-2.699,3.6-7.2,6.301-11.7,6.301h-63
		c-6.301,0-12.001-4.501-14.101-10.501c-5.999-16.5-14.399-31.5-24.899-44.399c-5.101-6.301-14.7-7.5-21-2.401
		c-6.601,5.4-7.5,15-2.401,21.301c3.001,3.6,5.4,7.5,8.101,11.7c2.699,4.499,3.3,10.8,0.601,15.599
		c-2.701,4.801-7.202,8.101-12.902,8.401L15,512c-3.9,0-7.8-1.5-10.499-4.501L358.2,153.8c58.2,9.6,101.7,42.9,123.6,94.499
		C507.6,308.899,497.401,385.099,456.301,437.899z"/>
	<path style="fill:#10BB67;" d="M507.5,25.942L330,200.544v85.154c0,8.545-6.599,15.26-15,15.26s-15-6.716-15-15.26v-54.633
		l-30,30.521v54.633c0,8.545-6.599,15.26-15,15.26s-15-6.716-15-15.26v-24.113l-30,30.521v24.113c0,8.545-6.599,15.26-15,15.26
		c-6.599,0-11.7-4.273-14.099-10.072l-5.402,5.494c-5.7,6.105-15.298,6.105-20.999,0c-6-5.799-6-15.566,0-21.365l5.4-5.494
		c-5.7-2.44-9.901-7.63-9.901-14.344c0-8.547,6.599-15.26,15-15.26h23.699l30-30.521H195c-8.401,0-15-6.716-15-15.26
		c0-8.547,6.599-15.26,15-15.26h53.699l30-30.521H225c-8.401,0-15-6.716-15-15.26c0-8.547,6.599-15.26,15-15.26h83.699
		l177.802-174.3c5.7-6.103,15.298-6.103,20.999,0C513.5,10.376,513.5,20.143,507.5,25.942z"/>
</g>
<path style="fill:#0CA656;" d="M507.5,25.942L330,200.544v85.154c0,8.545-6.599,15.26-15,15.26s-15-6.716-15-15.26v-54.633
	l-30,30.521v54.633c0,8.545-6.599,15.26-15,15.26s-15-6.716-15-15.26v-24.113l-30,30.521v24.113c0,8.545-6.599,15.26-15,15.26
	c-6.599,0-11.7-4.273-14.099-10.072l-5.402,5.494c-5.7,6.105-15.298,6.105-20.999,0l353-352.845
	C513.5,10.376,513.5,20.143,507.5,25.942z"/>
<g>
</g>
<g>
</g>
<g>
</g>
<g>
</g>
<g>
</g>
<g>
</g>
<g>
</g>
<g>
</g>
<g>
</g>
<g>
</g>
<g>
</g>
<g>
</g>
<g>
</g>
<g>
</g>
<g>
</g>
</svg>
